<svg id="Layer_1" data-name="Layer 1" xmlns="http://www.w3.org/2000/svg" viewBox="0 0 27 27">
  <defs>
    <style>
      .cls-1 {
        fill: none;
        stroke: #00ab84;
        stroke-miterlimit: 10;
        stroke-width: 1.3px;
      }
    </style>
  </defs>
  <g>
    <path class="cls-1" d="M9.65,12.69c-.84.93-2.61.7-4-.52s-1.77-3-.93-3.89,2.61-.7,4,.52S10.49,11.76,9.65,12.69Z"/>
    <path class="cls-1" d="M8,18c-.48.91-1.93,1.09-3.24.4s-2-2-1.53-2.89,1.92-1.09,3.24-.4S8.47,17.1,8,18Z"/>
    <path class="cls-1" d="M13.69,9.86c1.16-.47,1.55-2.21.87-3.9s-2.18-2.67-3.34-2.2S9.67,6,10.35,7.66,12.53,10.33,13.69,9.86Z"/>
    <path class="cls-1" d="M19.25,10.13c1-.14,1.69-1.44,1.49-2.91s-1.18-2.56-2.2-2.43S16.86,6.23,17.06,7.7,18.24,10.26,19.25,10.13Z"/>
    <path class="cls-1" d="M20.73,13.59c3.36,2.84,2.75,5.35.46,5.66s-2.87,0-3.52.47-.59,1.11-1.66,3.15-3.63,1.76-5.15-2.37a6.72,6.72,0,0,1,2-7.65A6.71,6.71,0,0,1,20.73,13.59Z"/>
  </g>
</svg>
