<svg id="Layer_1" data-name="Layer 1" xmlns="http://www.w3.org/2000/svg" viewBox="0 0 27 27">
  <defs>
    <style>
      .cls-1 {
        fill: none;
        stroke: #00ab84;
        stroke-linecap: round;
        stroke-miterlimit: 10;
        stroke-width: 1.4px;
      }
    </style>
  </defs>
  <g>
    <path class="cls-1" d="M11.59,15.3a5.78,5.78,0,0,1-1.88,4.5,4.12,4.12,0,0,1-3.77,1.05,4.58,4.58,0,0,1-3-2.19A6.22,6.22,0,0,1,2,15.18a9.13,9.13,0,0,1,.85-3.46A20.07,20.07,0,0,1,5.43,7.55c.36-.46.73-.91,1.09-1.35a.33.33,0,0,1,.56,0c.51.63,1,1.25,1.5,1.89a18.15,18.15,0,0,1,2.17,3.59,9.6,9.6,0,0,1,.84,3.07A4.86,4.86,0,0,1,11.59,15.3Z"/>
    <path class="cls-1" d="M25,15.3a5.78,5.78,0,0,1-1.88,4.5,4.12,4.12,0,0,1-3.77,1.05,4.58,4.58,0,0,1-3-2.19,6.22,6.22,0,0,1-.94-3.48,9.13,9.13,0,0,1,.85-3.46,20.07,20.07,0,0,1,2.59-4.17c.36-.46.73-.91,1.09-1.35a.33.33,0,0,1,.56,0c.51.63,1,1.25,1.5,1.89a18.15,18.15,0,0,1,2.17,3.59A9.35,9.35,0,0,1,25,14.76,4.86,4.86,0,0,1,25,15.3Z"/>
  </g>
</svg>
